<svg xmlns="http://www.w3.org/2000/svg" width="335.62" height="111.85" viewBox="0 0 335.62 111.85"><title>Dell logo - Brandlogos.net</title><path d="M551.81,413.67v19.57H487.9V334.75h22.5v78.92ZM256.35,433.25a49.5,49.5,0,0,0,47.95-36.85l56,43.53,56-43.51v36.83h63.9V413.67h-41.4V334.75h-22.5v36.83l-53.72,41.73-12-9.33,25.71-20,28-21.75-16-12.43-53.73,41.74-12-9.33,53.72-41.73-16-12.43-56,43.53a49.5,49.5,0,0,0-47.95-36.85H216.19v98.49Zm-17.66-19.57V354.33h17.66c14.93,0,27,13.29,27,29.67s-12.1,29.67-27,29.67Z" transform="translate(-216.19 -328.07)" style="fill:#0076ce"/></svg>