<?xml version="1.0" encoding="UTF-8"?><svg id="Layer_1" xmlns="http://www.w3.org/2000/svg" viewBox="0 0 99.8 99.8"><defs><style>.cls-1{fill:#0096d6;}</style></defs><g id="g3017"><g id="g3061"><g id="g3021"><path id="path3023" class="cls-1" d="M99.8,49.9C99.8,22.34,77.46,0,49.9,0c-.75,0-1.5.02-2.24.05l-10.21,28.05h8.89c5.29,0,8.14,4.07,6.33,9.05l-12.59,34.6h-10.57s13.51-37.09,13.51-37.09h-7.95l-13.51,37.09h-10.58l15.89-43.64h0L36.43,1.84C15.41,7.72,0,27.01,0,49.9s16.34,43.32,38.32,48.55l9.26-25.45h0l16.34-44.89h19.47c5.29,0,8.14,4.07,6.33,9.05l-11.06,30.39c-.84,2.32-3.55,4.21-6.01,4.21h-14.03l-10.2,28.03c.49.01.99.02,1.48.02,27.56,0,49.9-22.34,49.9-49.9"/></g><g id="g3025"><path id="path3027" class="cls-1" d="M80.09,34.64h-7.95l-11.13,30.53h7.95l11.13-30.53"/></g></g></g></svg>